<svg id="Capa_1" data-name="Capa 1" xmlns="http://www.w3.org/2000/svg" viewBox="0 0 77.62 105.96"><title>ThisIsYou_Blanco</title><path d="M1450.89,514.19c0.35-.11.57-0.18,0.79-0.26,11.63-4.47,19.4-12.66,23.45-24.41a0.68,0.68,0,0,0-.31-0.94q-5.2-3.55-10.39-7.13c-0.14-.09-0.29-0.17-0.47-0.27-0.06.29-.11,0.5-0.15,0.71A26.15,26.15,0,0,1,1453,499.16a1.33,1.33,0,0,0-.61,1.07c-0.32,3.25-.68,6.49-1,9.74C1451.18,511.33,1451,512.69,1450.89,514.19Zm-25.53-73c-0.31.09-.48,0.13-0.65,0.19-11.26,4.38-18.88,12.31-23,23.63a0.68,0.68,0,0,0,.3.94c3.41,2.42,6.8,4.86,10.19,7.29,0.13,0.1.28,0.17,0.47,0.28,0.15-.73.27-1.4,0.43-2.05a25.14,25.14,0,0,1,10.35-15,1.18,1.18,0,0,0,.58-1c0.32-3.59.68-7.17,1-10.75C1425.15,443.58,1425.25,442.42,1425.36,441.14Zm37.82,7.16a1.84,1.84,0,0,0-.16-0.22l-0.37-.31a38.94,38.94,0,0,0-31.32-8.1c-0.36.06-.78,0-0.84,0.62-0.37,3.74-.78,7.48-1.17,11.22-0.06.6-.11,1.2-0.16,1.86l0.51-.14a26,26,0,0,1,19.71,1,1.12,1.12,0,0,0,.82,0c2.85-1.27,5.7-2.57,8.54-3.86Zm-50,58.81c0.46,0.37.82,0.67,1.19,1a38.65,38.65,0,0,0,30.94,7.61A0.65,0.65,0,0,0,1446,515c0.37-3.64.77-7.28,1.15-10.92,0.07-.62.12-1.25,0.18-2l-0.72.22a27,27,0,0,1-19.46-1.11,1.28,1.28,0,0,0-.93,0c-3.31,1.47-6.6,3-9.9,4.48Zm63.23-23.19a2.33,2.33,0,0,0,.1-0.31,38.09,38.09,0,0,0,.58-6.39c0-.89-0.14-1.77-0.21-2.66a38.82,38.82,0,0,0-9.2-22.18,0.73,0.73,0,0,0-1-.24c-3.61,1.67-7.24,3.3-10.86,4.95l-1.06.51c0.2,0.18.35,0.3,0.48,0.45,1.36,1.44,2.85,2.79,4.06,4.36a23.57,23.57,0,0,1,4.77,12.3,1.48,1.48,0,0,0,.7,1.21c3.38,2.29,6.73,4.61,10.09,6.92Z" transform="translate(-1399.53 -439.05)" style="fill:#fff"/><path d="M1399.53,475.92c0.13-1.12.25-2.25,0.39-3.37,0.08-.64.2-1.28,0.32-2l1.16,0.82q5.29,3.79,10.58,7.58a1.17,1.17,0,0,1,.54.92,26.53,26.53,0,0,0,9,17.7l0.22,0.2a0.63,0.63,0,0,1,.07.14c-0.13.08-.26,0.16-0.4,0.23-3.8,1.73-7.61,3.44-11.41,5.19a0.6,0.6,0,0,1-.85-0.19,38.5,38.5,0,0,1-9.25-20.42c-0.15-1.1-.25-2.21-0.38-3.31v-3.46Z" transform="translate(-1399.53 -439.05)" style="fill:#fff"/><path d="M1450.89,514.19c0.15-1.49.29-2.86,0.43-4.22,0.34-3.25.69-6.49,1-9.74a1.33,1.33,0,0,1,.61-1.07,26.15,26.15,0,0,0,10.87-17.27c0-.21.09-0.43,0.15-0.71,0.18,0.1.34,0.17,0.47,0.27q5.19,3.57,10.39,7.13a0.68,0.68,0,0,1,.31.94c-4.05,11.76-11.82,19.94-23.45,24.41C1451.47,514,1451.24,514.07,1450.89,514.19Z" transform="translate(-1399.53 -439.05)" style="fill:#fff"/><path d="M1425.36,441.14c-0.11,1.27-.21,2.44-0.32,3.6-0.34,3.58-.7,7.17-1,10.75a1.18,1.18,0,0,1-.58,1,25.14,25.14,0,0,0-10.35,15c-0.16.65-.28,1.32-0.43,2.05-0.19-.11-0.34-0.18-0.47-0.28-3.4-2.43-6.79-4.87-10.19-7.29a0.68,0.68,0,0,1-.3-0.94c4.14-11.32,11.75-19.25,23-23.63C1424.87,441.27,1425,441.23,1425.36,441.14Z" transform="translate(-1399.53 -439.05)" style="fill:#fff"/><path d="M1463.18,448.3l-4.44,2c-2.84,1.29-5.69,2.59-8.54,3.86a1.12,1.12,0,0,1-.82,0,26,26,0,0,0-19.71-1l-0.51.14c0.06-.66.1-1.26,0.16-1.86,0.39-3.74.8-7.48,1.17-11.22,0.06-.61.48-0.55,0.84-0.62a38.94,38.94,0,0,1,31.32,8.1l0.37,0.31A1.84,1.84,0,0,1,1463.18,448.3Z" transform="translate(-1399.53 -439.05)" style="fill:#fff"/><path d="M1413.23,507.11l3.09-1.41c3.3-1.5,6.59-3,9.9-4.48a1.28,1.28,0,0,1,.93,0,27,27,0,0,0,19.46,1.11l0.72-.22c-0.07.71-.12,1.33-0.18,2-0.39,3.64-.78,7.28-1.15,10.92a0.65,0.65,0,0,1-.63.69,38.65,38.65,0,0,1-30.94-7.61C1414,507.78,1413.69,507.48,1413.23,507.11Z" transform="translate(-1399.53 -439.05)" style="fill:#fff"/><path d="M1476.45,483.92l-1.59-1.1c-3.36-2.31-6.72-4.63-10.09-6.92a1.48,1.48,0,0,1-.7-1.21,23.57,23.57,0,0,0-4.77-12.3c-1.21-1.57-2.69-2.91-4.06-4.36-0.13-.14-0.29-0.26-0.48-0.45l1.06-.51c3.62-1.65,7.25-3.28,10.86-4.95a0.73,0.73,0,0,1,1,.24,38.82,38.82,0,0,1,9.2,22.18c0.08,0.88.17,1.77,0.21,2.66a38.09,38.09,0,0,1-.58,6.39A2.33,2.33,0,0,1,1476.45,483.92Z" transform="translate(-1399.53 -439.05)" style="fill:#fff"/><path d="M1438.78,462.78a15.57,15.57,0,1,0,15.57,15.3A15.5,15.5,0,0,0,1438.78,462.78Zm-6.4,10a3.59,3.59,0,1,1,3.56,3.57A3.55,3.55,0,0,1,1432.38,472.78Z" transform="translate(-1399.53 -439.05)" style="fill:#fff"/><circle cx="36.44" cy="33.71" r="3.59" style="fill:#e53041"/><path d="M1417.29,533.33V535h-1.55v9.86h-1.66V535h-1.55v-1.63h4.76Z" transform="translate(-1399.53 -439.05)" style="fill:#fff"/><path d="M1418.35,533.33H1420v6.42h1.45v-6.42h1.66v11.5h-1.66v-3.44H1420v3.44h-1.66v-11.5Z" transform="translate(-1399.53 -439.05)" style="fill:#fff"/><path d="M1424.67,533.33h1.66v11.5h-1.66v-11.5Z" transform="translate(-1399.53 -439.05)" style="fill:#fff"/><path d="M1429.42,541.44v1.15a0.73,0.73,0,1,0,1.45,0v-0.21q0-.83-1.55-1.95a3.24,3.24,0,0,1-1.55-2.7v-2.18a2.38,2.38,0,1,1,4.76,0v1.55h-1.66v-1.55a0.67,0.67,0,0,0-.72-0.78h0a0.66,0.66,0,0,0-.71.78v2.14q0,0.77,1.55,1.88a3.21,3.21,0,0,1,1.55,2.65v0.35a2.38,2.38,0,1,1-4.76,0v-1.15h1.66Z" transform="translate(-1399.53 -439.05)" style="fill:#fff"/><path d="M1436.94,533.33h1.66v11.5h-1.66v-11.5Z" transform="translate(-1399.53 -439.05)" style="fill:#fff"/><path d="M1441.69,541.44v1.15a0.73,0.73,0,1,0,1.45,0v-0.21q0-.83-1.55-1.95a3.24,3.24,0,0,1-1.55-2.7v-2.18a2.38,2.38,0,1,1,4.76,0v1.55h-1.66v-1.55a0.67,0.67,0,0,0-.72-0.78h0a0.66,0.66,0,0,0-.71.78v2.14q0,0.77,1.55,1.88a3.21,3.21,0,0,1,1.55,2.65v0.35a2.38,2.38,0,1,1-4.76,0v-1.15h1.66Z" transform="translate(-1399.53 -439.05)" style="fill:#fff"/><path d="M1450.41,533.33l1.13,6.46,1.13-6.46h1.76l-2,8.5,0,0.14v2.86h-1.66V542l-0.05-.14-2-8.5h1.76Z" transform="translate(-1399.53 -439.05)" style="fill:#e53041"/><path d="M1460.07,542.59a2.38,2.38,0,1,1-4.76,0v-7a2.38,2.38,0,1,1,4.76,0v7Zm-1.66-7a0.67,0.67,0,0,0-.72-0.78h0a0.66,0.66,0,0,0-.71.78v7a0.73,0.73,0,1,0,1.45,0v-7Z" transform="translate(-1399.53 -439.05)" style="fill:#e53041"/><path d="M1466.18,542.59a2.38,2.38,0,1,1-4.76,0v-9.26h1.66v9.26a0.73,0.73,0,1,0,1.45,0v-9.26h1.66v9.26Z" transform="translate(-1399.53 -439.05)" style="fill:#e53041"/><text x="-1399.53" y="-439.05"/></svg>